<?xml version="1.0" encoding="utf-8"?>
<!-- Generator: Adobe Illustrator 16.0.0, SVG Export Plug-In . SVG Version: 6.00 Build 0)  -->
<!DOCTYPE svg PUBLIC "-//W3C//DTD SVG 1.1//EN" "http://www.w3.org/Graphics/SVG/1.1/DTD/svg11.dtd">
<svg version="1.1" id="Livello_1" xmlns="http://www.w3.org/2000/svg" xmlns:xlink="http://www.w3.org/1999/xlink" x="0px" y="0px"
	 width="868.726px" height="348.863px" viewBox="0 0 868.726 348.863" enable-background="new 0 0 868.726 348.863"
	 xml:space="preserve">
<g>
	<path fill-rule="evenodd" clip-rule="evenodd" fill="#FFFFFF" d="M150.389,0h70.993v186.264c0,32.063-13.743,99.239-112.216,99.239
		C10.689,285.503,0,222.908,0,187.793v-34.354h68.707v33.589c0,20.613,13.74,39.695,39.695,39.695s41.986-14.505,41.986-38.931V0z"
		/>
	<path fill-rule="evenodd" clip-rule="evenodd" fill="#FFFFFF" d="M859.268,311.152c-2.938-2.936-6.844-4.553-10.997-4.553
		c-8.573,0-15.549,6.976-15.549,15.55c0,4.153,1.617,8.059,4.553,10.994c2.938,2.938,6.843,4.556,10.996,4.556
		s8.059-1.617,10.997-4.556c2.938-2.936,4.553-6.841,4.553-10.994C863.82,317.997,862.206,314.092,859.268,311.152 M848.271,335.283
		c-3.508,0-6.806-1.366-9.288-3.849c-2.479-2.479-3.845-5.777-3.845-9.285s1.365-6.806,3.845-9.288
		c2.482-2.482,5.783-3.85,9.288-3.85c3.509,0,6.806,1.367,9.289,3.85c2.482,2.482,3.848,5.78,3.848,9.288
		C861.407,329.393,855.514,335.283,848.271,335.283"/>
	<path fill-rule="evenodd" clip-rule="evenodd" fill="#FFFFFF" d="M854.821,324.67c-0.044-2.118-0.217-2.451-1.862-3.278
		c1.579-0.953,2.212-1.555,2.105-3.231c-0.198-2.911-2.609-3.278-5.082-3.278h-7.14v12.859h2.06v-5.522h5.234
		c3.351,0,2.429,2.382,2.604,3.898c0.066,0.494,0.152,1.022,0.46,1.624h2.477v-0.422
		C854.954,326.895,854.866,326.294,854.821,324.67 M850.049,320.756h-5.146v-4.411h5.124c1.271,0,3.241,0.264,2.955,2.451
		C852.764,320.453,851.403,320.756,850.049,320.756"/>
	<path fill-rule="evenodd" clip-rule="evenodd" fill="#FFFFFF" d="M339.703,241.99c-22.899,0-35.877-12.976-35.877-44.272h132.064
		c0-98.479-48.853-119.853-104.585-119.853c-64.886,0-93.894,59.544-93.894,110.689c0,51.148,32.828,100.766,100.004,100.766
		c58.78,0.761,97.714-37.405,97.714-65.648h-64.889C370.241,223.672,362.606,241.99,339.703,241.99 M335.891,120.613
		c24.438,0,35.114,18.322,35.114,37.404h-67.179C303.826,137.409,312.224,120.613,335.891,120.613"/>
	<path fill-rule="evenodd" clip-rule="evenodd" fill="#FFFFFF" d="M551.922,241.99c-22.899,0-35.876-12.976-35.876-44.272h132.063
		c0-98.479-48.849-119.853-104.582-119.853c-64.889,0-93.896,59.544-93.896,110.689c0,51.148,32.827,100.766,100.003,100.766
		c58.779,0.761,97.714-37.405,97.714-65.648h-64.889C582.459,223.672,574.826,241.99,551.922,241.99 M548.109,120.613
		c24.438,0,35.114,18.322,35.114,37.404h-67.178C516.046,137.409,524.444,120.613,548.109,120.613"/>
	<path fill-rule="evenodd" clip-rule="evenodd" fill="#FFFFFF" d="M784.757,80.156c-32.828,0-48.858,18.318-49.621,20.612
		c-0.764,2.288-9.161,11.447-9.161-4.581V85.498h-65.65v263.365h66.415V276.34c0-5.342,5.343-4.578,9.159,0
		c3.816,4.582,20.611,16.035,49.62,16.035c52.675,0,83.207-45.803,83.207-108.398C868.726,103.057,817.58,80.156,784.757,80.156
		 M764.905,245.808c-32.059,0-40.457-20.609-39.692-59.544c0.762-38.932,16.028-54.962,36.644-54.962
		c33.585,0,39.692,25.955,39.692,52.675C801.549,210.693,796.968,245.808,764.905,245.808"/>
</g>
</svg>
